<svg width="32" height="32" viewBox="0 0 32 32" fill="none" xmlns="http://www.w3.org/2000/svg">
<path fill-rule="evenodd" clip-rule="evenodd" d="M15.9999 32C24.8399 32 31.9999 24.84 31.9999 16C31.9999 7.16 24.8399 0 15.9999 0C7.15988 0 -0.00012207 7.16 -0.00012207 16C-0.00012207 24.84 7.15988 32 15.9999 32ZM19.0499 8C20.6899 8.26 22.2599 8.74016 23.7599 9.41016C26.3599 13.1302 27.3199 17.1398 26.9099 21.2998C24.9999 22.6498 23.1498 23.47 21.3398 24C20.8898 23.42 20.4899 22.7996 20.1399 22.1396C20.7999 21.9096 21.4299 21.6203 22.0299 21.2803C21.8699 21.1703 21.7198 21.0497 21.5698 20.9297C17.9898 22.5297 14.0599 22.5297 10.4299 20.9297C10.2799 21.0497 10.1298 21.1703 9.96985 21.2803C10.5698 21.6203 11.1899 21.9096 11.8499 22.1396C11.5099 22.7996 11.1099 23.42 10.6599 24C8.83991 23.46 6.99984 22.6498 5.08984 21.2998C4.67984 17.1398 5.63987 13.1302 8.23987 9.41016C9.64987 8.75016 11.2398 8.3 12.9498 8C13.1498 8.33 13.3299 8.68004 13.4799 9.04004C15.1499 8.79004 16.8199 8.79004 18.5199 9.04004C18.6699 8.68004 18.8499 8.33 19.0499 8ZM10.4199 16.7305C10.4199 17.9005 11.3099 18.8604 12.3999 18.8604C13.4999 18.8604 14.3799 17.9005 14.3799 16.7305C14.3899 15.5605 13.4999 14.5996 12.3999 14.5996C11.2899 14.5996 10.4199 15.5605 10.4199 16.7305ZM17.6299 16.7305C17.6299 17.9005 18.4999 18.8604 19.6099 18.8604C20.6999 18.8604 21.5898 17.9005 21.5898 16.7305C21.5898 15.5605 20.7099 14.5996 19.6099 14.5996C18.4999 14.5996 17.6099 15.5605 17.6299 16.7305Z" fill="white"/>
</svg>
