<svg width="32" height="32" viewBox="0 0 32 32" fill="none" xmlns="http://www.w3.org/2000/svg">
<path fill-rule="evenodd" clip-rule="evenodd" d="M15.9999 32C24.8399 32 31.9999 24.84 31.9999 16C31.9999 7.16 24.8399 0 15.9999 0C7.15988 0 -0.00012207 7.16 -0.00012207 16C-0.00012207 24.84 7.15988 32 15.9999 32ZM7.19983 12.3301C7.19983 9.50008 9.49983 7.2002 12.3298 7.2002H19.6699C22.4999 7.2002 24.7999 9.50008 24.7999 12.3301V19.6699C24.7999 22.4999 22.4999 24.7998 19.6699 24.7998H12.3298C9.49983 24.7998 7.19983 22.4999 7.19983 19.6699V12.3301ZM21.8699 10.8701C21.8699 10.4601 21.5399 10.1299 21.1299 10.1299C20.7299 10.1299 20.3999 10.4601 20.3999 10.8701C20.3999 11.2701 20.7299 11.5996 21.1299 11.5996C21.5399 11.5996 21.8699 11.2701 21.8699 10.8701ZM20.3999 16C20.3999 13.57 18.4299 11.5996 15.9999 11.5996C13.5699 11.5996 11.5999 13.57 11.5999 16C11.5999 18.43 13.5699 20.4004 15.9999 20.4004C18.4299 20.4004 20.3999 18.43 20.3999 16ZM13.9299 13.9297C14.4799 13.3797 15.2199 13.0703 15.9999 13.0703C16.7799 13.0703 17.5198 13.3797 18.0698 13.9297C18.6198 14.4797 18.9299 15.22 18.9299 16C18.9299 16.78 18.6198 17.5203 18.0698 18.0703C17.5198 18.6203 16.7799 18.9297 15.9999 18.9297C15.2199 18.9297 14.4799 18.6203 13.9299 18.0703C13.3799 17.5203 13.0698 16.78 13.0698 16C13.0698 15.22 13.3799 14.4797 13.9299 13.9297Z" fill="white"/>
</svg>
