<svg width="53" height="27" viewBox="0 0 53 27" fill="none" xmlns="http://www.w3.org/2000/svg">
<rect x="1" width="52" height="24" rx="12" fill="url(#paint0_linear_656_575)"/>
<g filter="url(#filter0_d_656_575)">
<circle cx="13" cy="12" r="9" fill="#FFFEF7"/>
</g>
<mask id="mask0_656_575" style="mask-type:alpha" maskUnits="userSpaceOnUse" x="1" y="0" width="52" height="24">
<rect x="1" width="52" height="24" rx="12" fill="url(#paint1_linear_656_575)"/>
</mask>
<g mask="url(#mask0_656_575)">
<path fill-rule="evenodd" clip-rule="evenodd" d="M44.9502 14H40.0002H34.2002C32.5433 14 31.2002 12.6569 31.2002 11V10.4C31.2002 8.74314 32.5433 7.4 34.2002 7.4H34.6102C35.1198 4.88954 37.3393 3 40.0002 3C42.256 3 44.1946 4.35802 45.043 6.3011C47.1264 6.3504 48.8002 8.05473 48.8002 10.15C48.8002 10.1944 48.7994 10.2387 48.7979 10.2828C48.7994 10.3217 48.8002 10.3608 48.8002 10.4V11C48.8002 12.6569 47.4571 14 45.8002 14H44.9502Z" fill="url(#paint2_linear_656_575)"/>
<path fill-rule="evenodd" clip-rule="evenodd" d="M38.9174 26.9437C37.239 28.3084 35.0734 29.0871 32.7424 28.9853C31.2422 28.9197 29.8422 28.4969 28.6208 27.8024C27.3602 29.1621 25.533 29.98 23.5355 29.8927C19.926 29.735 17.1276 26.681 17.2853 23.0714C17.443 19.4618 20.497 16.6635 24.1066 16.8212C24.2326 16.8267 24.3576 16.8358 24.4816 16.8482C25.7684 13.1122 29.393 10.504 33.5418 10.6852C37.6917 10.8665 41.0756 13.7822 42.0308 17.6176C42.155 17.6142 42.2802 17.6152 42.4062 17.6207C45.2939 17.7469 47.5325 20.1901 47.4064 23.0777C47.2802 25.9654 44.837 28.2041 41.9494 28.0779C40.7998 28.0277 39.753 27.6102 38.9174 26.9437Z" fill="url(#paint3_linear_656_575)"/>
</g>
<defs>
<filter id="filter0_d_656_575" x="0" y="1" width="26" height="26" filterUnits="userSpaceOnUse" color-interpolation-filters="sRGB">
<feFlood flood-opacity="0" result="BackgroundImageFix"/>
<feColorMatrix in="SourceAlpha" type="matrix" values="0 0 0 0 0 0 0 0 0 0 0 0 0 0 0 0 0 0 127 0" result="hardAlpha"/>
<feOffset dy="2"/>
<feGaussianBlur stdDeviation="2"/>
<feComposite in2="hardAlpha" operator="out"/>
<feColorMatrix type="matrix" values="0 0 0 0 0 0 0 0 0 0 0 0 0 0 0 0 0 0 0.25 0"/>
<feBlend mode="normal" in2="BackgroundImageFix" result="effect1_dropShadow_656_575"/>
<feBlend mode="normal" in="SourceGraphic" in2="effect1_dropShadow_656_575" result="shape"/>
</filter>
<linearGradient id="paint0_linear_656_575" x1="1" y1="11.5" x2="53" y2="12" gradientUnits="userSpaceOnUse">
<stop offset="0.106006" stop-color="#5ED3D0"/>
<stop offset="0.544473" stop-color="#89A2FB"/>
<stop offset="0.988128" stop-color="#8750F3"/>
</linearGradient>
<linearGradient id="paint1_linear_656_575" x1="1" y1="11.5" x2="53" y2="12" gradientUnits="userSpaceOnUse">
<stop offset="0.00673288" stop-color="#CD792B"/>
<stop offset="0.52832" stop-color="#A689FB"/>
<stop offset="1" stop-color="#89A2FB"/>
</linearGradient>
<linearGradient id="paint2_linear_656_575" x1="40.0002" y1="3" x2="40.0002" y2="14" gradientUnits="userSpaceOnUse">
<stop stop-color="white"/>
<stop offset="1" stop-color="#D9D9D9" stop-opacity="0"/>
</linearGradient>
<linearGradient id="paint3_linear_656_575" x1="32.8884" y1="10.6567" x2="32.0319" y2="30.2639" gradientUnits="userSpaceOnUse">
<stop stop-color="white"/>
<stop offset="1" stop-color="#D9D9D9" stop-opacity="0"/>
</linearGradient>
</defs>
</svg>
