<svg width="1421" height="367" viewBox="0 0 1421 367" fill="none" xmlns="http://www.w3.org/2000/svg">
<g clip-path="url(#clip0_1_2)">
<mask id="mask0_1_2" style="mask-type:luminance" maskUnits="userSpaceOnUse" x="2" y="-5608" width="1440" height="8800">
<path d="M1442 -5608H2V3192H1442V-5608Z" fill="white"/>
</mask>
<g mask="url(#mask0_1_2)">
<path d="M1442 -5608H2V3192H1442V-5608Z" fill="white"/>
<path d="M1442 -5583H2V4053H1442V-5583Z" fill="#221F2C"/>
<g filter="url(#filter0_d_1_2)">
<path d="M-22 194.5C-15.8333 243.17 26.1 292.2 118.5 293C278.5 294.39 264.5 80 458.5 80C598.5 80 577.944 241.5 687.5 241.5C757.5 241.5 758 170.5 850 173C942 175.5 936.5 307 1071.5 303.5C1206.5 300 1162.51 126.86 1364.5 112.5C1470 105 1584.5 155.5 1669 282" stroke="white" stroke-width="78"/>
</g>
<path d="M-22 194.5C-15.8333 243.17 26.1 292.2 118.5 293C278.5 294.39 264.5 80 458.5 80C598.5 80 577.944 241.5 687.5 241.5C757.5 241.5 758 170.5 850 173C942 175.5 936.5 307 1071.5 303.5C1206.5 300 1162.51 126.86 1364.5 112.5C1470 105 1584.5 155.5 1669 282" stroke="#312D43" stroke-width="60"/>
<path d="M-22 194.5C-15.8333 243.17 26.1 292.2 118.5 293C278.5 294.39 264.5 80 458.5 80C598.5 80 577.944 241.5 687.5 241.5C757.5 241.5 758 170.5 850 173C942 175.5 936.5 307 1071.5 303.5C1206.5 300 1162.51 126.86 1364.5 112.5C1470 105 1584.5 155.5 1669 282" stroke="white" stroke-width="4" stroke-dasharray="24 24"/>
<mask id="mask1_1_2" style="mask-type:luminance" maskUnits="userSpaceOnUse" x="300" y="50" width="58" height="76">
<path d="M358 50H300V126H358V50Z" fill="white"/>
</mask>
<g mask="url(#mask1_1_2)">
<g filter="url(#filter1_d_1_2)">
<path d="M328.102 126C327.203 124.74 326.402 123.4 325.382 122.25C316.608 112.36 308.207 102.2 302.865 89.9201C296.131 74.4401 301.514 59.7899 316.422 52.7599C330.489 46.1299 347.802 51.8504 355.013 65.4704C359.263 73.4904 358.672 81.5002 355.143 89.5602C349.655 102.07 341.149 112.47 332.173 122.55C331.242 123.59 330.53 124.84 329.712 125.99H328.093L328.102 126ZM341.853 77.4201C341.853 70.4301 336.098 64.5604 329.113 64.4704C321.91 64.3604 315.969 70.21 315.969 77.4C315.969 84.4 321.732 90.2703 328.709 90.3703C335.864 90.4803 341.861 84.5903 341.861 77.4303L341.853 77.4201Z" fill="#5ED3D0"/>
</g>
</g>
<mask id="mask2_1_2" style="mask-type:luminance" maskUnits="userSpaceOnUse" x="500" y="25" width="58" height="76">
<path d="M558 25H500V101H558V25Z" fill="white"/>
</mask>
<g mask="url(#mask2_1_2)">
<g filter="url(#filter2_d_1_2)">
<path d="M528.102 101C527.203 99.7401 526.402 98.4001 525.382 97.2501C516.608 87.3601 508.207 77.2001 502.865 64.9201C496.131 49.4401 501.514 34.7899 516.422 27.7599C530.489 21.1299 547.802 26.8504 555.013 40.4704C559.263 48.4904 558.672 56.5002 555.143 64.5602C549.655 77.0702 541.149 87.4699 532.173 97.5499C531.242 98.5899 530.53 99.8404 529.712 100.99H528.093L528.102 101ZM541.853 52.4201C541.853 45.4301 536.098 39.5604 529.113 39.4704C521.91 39.3604 515.969 45.21 515.969 52.4C515.969 59.4 521.732 65.2703 528.709 65.3703C535.864 65.4803 541.861 59.5903 541.861 52.4303L541.853 52.4201Z" fill="#FFAA5B"/>
</g>
</g>
<mask id="mask3_1_2" style="mask-type:luminance" maskUnits="userSpaceOnUse" x="694" y="154" width="58" height="76">
<path d="M752 154H694V230H752V154Z" fill="white"/>
</mask>
<g mask="url(#mask3_1_2)">
<g filter="url(#filter3_d_1_2)">
<path d="M722.102 230C721.203 228.74 720.402 227.4 719.382 226.25C710.608 216.36 702.207 206.2 696.865 193.92C690.131 178.44 695.514 163.79 710.422 156.76C724.489 150.13 741.802 155.85 749.013 169.47C753.263 177.49 752.672 185.5 749.143 193.56C743.655 206.07 735.149 216.47 726.173 226.55C725.242 227.59 724.53 228.84 723.712 229.99H722.093L722.102 230ZM735.853 181.42C735.853 174.43 730.098 168.56 723.113 168.47C715.91 168.36 709.969 174.21 709.969 181.4C709.969 188.4 715.732 194.27 722.709 194.37C729.864 194.48 735.861 188.59 735.861 181.43L735.853 181.42Z" fill="#8750F3"/>
</g>
</g>
<mask id="mask4_1_2" style="mask-type:luminance" maskUnits="userSpaceOnUse" x="891" y="136" width="58" height="76">
<path d="M949 136H891V212H949V136Z" fill="white"/>
</mask>
<g mask="url(#mask4_1_2)">
<g filter="url(#filter4_d_1_2)">
<path d="M919.102 212C918.203 210.74 917.402 209.4 916.382 208.25C907.608 198.36 899.207 188.2 893.865 175.92C887.131 160.44 892.514 145.79 907.422 138.76C921.489 132.13 938.802 137.85 946.013 151.47C950.263 159.49 949.672 167.5 946.143 175.56C940.655 188.07 932.149 198.47 923.173 208.55C922.242 209.59 921.53 210.84 920.712 211.99H919.093L919.102 212ZM932.853 163.42C932.853 156.43 927.098 150.56 920.113 150.47C912.91 150.36 906.969 156.21 906.969 163.4C906.969 170.4 912.732 176.27 919.709 176.37C926.864 176.48 932.861 170.59 932.861 163.43L932.853 163.42Z" fill="#FFF386"/>
</g>
</g>
<mask id="mask5_1_2" style="mask-type:luminance" maskUnits="userSpaceOnUse" x="1087" y="212" width="59" height="76">
<path d="M1146 212H1088V288H1146V212Z" fill="white"/>
</mask>
<g mask="url(#mask5_1_2)">
<g filter="url(#filter5_d_1_2)">
<path d="M1116.1 288C1115.2 286.74 1114.4 285.4 1113.38 284.25C1104.61 274.36 1096.21 264.2 1090.87 251.92C1084.13 236.44 1089.51 221.79 1104.42 214.76C1118.49 208.13 1135.8 213.85 1143.01 227.47C1147.26 235.49 1146.67 243.5 1143.14 251.56C1137.66 264.07 1129.15 274.47 1120.17 284.55C1119.24 285.59 1118.53 286.84 1117.71 287.99H1116.09L1116.1 288ZM1129.85 239.42C1129.85 232.43 1124.1 226.56 1117.11 226.47C1109.91 226.36 1103.97 232.21 1103.97 239.4C1103.97 246.4 1109.73 252.27 1116.71 252.37C1123.86 252.48 1129.86 246.59 1129.86 239.43L1129.85 239.42Z" fill="#638FFF"/>
</g>
</g>
<g filter="url(#filter6_d_1_2)">
</g>
<g filter="url(#filter7_d_1_2)">
</g>
<g filter="url(#filter8_d_1_2)">
</g>
<g filter="url(#filter9_d_1_2)">
</g>
<path d="M1127 5H1459V342H1127V5Z" fill="url(#paint0_linear_1_2)"/>
<g filter="url(#filter10_d_1_2)">
</g>
<path d="M315 94H-17V401H315V94Z" fill="url(#paint1_linear_1_2)"/>
</g>
</g>
<defs>
<filter id="filter0_d_1_2" x="-70.6907" y="35" width="1782.12" height="321.568" filterUnits="userSpaceOnUse" color-interpolation-filters="sRGB">
<feFlood flood-opacity="0" result="BackgroundImageFix"/>
<feColorMatrix in="SourceAlpha" type="matrix" values="0 0 0 0 0 0 0 0 0 0 0 0 0 0 0 0 0 0 127 0" result="hardAlpha"/>
<feOffset dy="4"/>
<feGaussianBlur stdDeviation="5"/>
<feComposite in2="hardAlpha" operator="out"/>
<feColorMatrix type="matrix" values="0 0 0 0 0 0 0 0 0 0 0 0 0 0 0 0 0 0 0.25 0"/>
<feBlend mode="normal" in2="BackgroundImageFix" result="effect1_dropShadow_1_2"/>
<feBlend mode="normal" in="SourceGraphic" in2="effect1_dropShadow_1_2" result="shape"/>
</filter>
<filter id="filter1_d_1_2" x="296" y="49.9976" width="65.9977" height="84.0026" filterUnits="userSpaceOnUse" color-interpolation-filters="sRGB">
<feFlood flood-opacity="0" result="BackgroundImageFix"/>
<feColorMatrix in="SourceAlpha" type="matrix" values="0 0 0 0 0 0 0 0 0 0 0 0 0 0 0 0 0 0 127 0" result="hardAlpha"/>
<feOffset dy="4"/>
<feGaussianBlur stdDeviation="2"/>
<feComposite in2="hardAlpha" operator="out"/>
<feColorMatrix type="matrix" values="0 0 0 0 0 0 0 0 0 0 0 0 0 0 0 0 0 0 0.25 0"/>
<feBlend mode="normal" in2="BackgroundImageFix" result="effect1_dropShadow_1_2"/>
<feBlend mode="normal" in="SourceGraphic" in2="effect1_dropShadow_1_2" result="shape"/>
</filter>
<filter id="filter2_d_1_2" x="496" y="24.9976" width="65.9977" height="84.0026" filterUnits="userSpaceOnUse" color-interpolation-filters="sRGB">
<feFlood flood-opacity="0" result="BackgroundImageFix"/>
<feColorMatrix in="SourceAlpha" type="matrix" values="0 0 0 0 0 0 0 0 0 0 0 0 0 0 0 0 0 0 127 0" result="hardAlpha"/>
<feOffset dy="4"/>
<feGaussianBlur stdDeviation="2"/>
<feComposite in2="hardAlpha" operator="out"/>
<feColorMatrix type="matrix" values="0 0 0 0 0 0 0 0 0 0 0 0 0 0 0 0 0 0 0.25 0"/>
<feBlend mode="normal" in2="BackgroundImageFix" result="effect1_dropShadow_1_2"/>
<feBlend mode="normal" in="SourceGraphic" in2="effect1_dropShadow_1_2" result="shape"/>
</filter>
<filter id="filter3_d_1_2" x="690" y="153.998" width="65.9977" height="84.0026" filterUnits="userSpaceOnUse" color-interpolation-filters="sRGB">
<feFlood flood-opacity="0" result="BackgroundImageFix"/>
<feColorMatrix in="SourceAlpha" type="matrix" values="0 0 0 0 0 0 0 0 0 0 0 0 0 0 0 0 0 0 127 0" result="hardAlpha"/>
<feOffset dy="4"/>
<feGaussianBlur stdDeviation="2"/>
<feComposite in2="hardAlpha" operator="out"/>
<feColorMatrix type="matrix" values="0 0 0 0 0 0 0 0 0 0 0 0 0 0 0 0 0 0 0.25 0"/>
<feBlend mode="normal" in2="BackgroundImageFix" result="effect1_dropShadow_1_2"/>
<feBlend mode="normal" in="SourceGraphic" in2="effect1_dropShadow_1_2" result="shape"/>
</filter>
<filter id="filter4_d_1_2" x="887" y="135.998" width="65.9977" height="84.0026" filterUnits="userSpaceOnUse" color-interpolation-filters="sRGB">
<feFlood flood-opacity="0" result="BackgroundImageFix"/>
<feColorMatrix in="SourceAlpha" type="matrix" values="0 0 0 0 0 0 0 0 0 0 0 0 0 0 0 0 0 0 127 0" result="hardAlpha"/>
<feOffset dy="4"/>
<feGaussianBlur stdDeviation="2"/>
<feComposite in2="hardAlpha" operator="out"/>
<feColorMatrix type="matrix" values="0 0 0 0 0 0 0 0 0 0 0 0 0 0 0 0 0 0 0.25 0"/>
<feBlend mode="normal" in2="BackgroundImageFix" result="effect1_dropShadow_1_2"/>
<feBlend mode="normal" in="SourceGraphic" in2="effect1_dropShadow_1_2" result="shape"/>
</filter>
<filter id="filter5_d_1_2" x="1084" y="211.998" width="65.9945" height="84.0026" filterUnits="userSpaceOnUse" color-interpolation-filters="sRGB">
<feFlood flood-opacity="0" result="BackgroundImageFix"/>
<feColorMatrix in="SourceAlpha" type="matrix" values="0 0 0 0 0 0 0 0 0 0 0 0 0 0 0 0 0 0 127 0" result="hardAlpha"/>
<feOffset dy="4"/>
<feGaussianBlur stdDeviation="2"/>
<feComposite in2="hardAlpha" operator="out"/>
<feColorMatrix type="matrix" values="0 0 0 0 0 0 0 0 0 0 0 0 0 0 0 0 0 0 0.25 0"/>
<feBlend mode="normal" in2="BackgroundImageFix" result="effect1_dropShadow_1_2"/>
<feBlend mode="normal" in="SourceGraphic" in2="effect1_dropShadow_1_2" result="shape"/>
</filter>
<filter id="filter6_d_1_2" x="489" y="364" width="70" height="70" filterUnits="userSpaceOnUse" color-interpolation-filters="sRGB">
<feFlood flood-opacity="0" result="BackgroundImageFix"/>
<feColorMatrix in="SourceAlpha" type="matrix" values="0 0 0 0 0 0 0 0 0 0 0 0 0 0 0 0 0 0 127 0" result="hardAlpha"/>
<feOffset dy="4"/>
<feGaussianBlur stdDeviation="5"/>
<feComposite in2="hardAlpha" operator="out"/>
<feColorMatrix type="matrix" values="0 0 0 0 0 0 0 0 0 0 0 0 0 0 0 0 0 0 0.16 0"/>
<feBlend mode="normal" in2="BackgroundImageFix" result="effect1_dropShadow_1_2"/>
<feBlend mode="normal" in="SourceGraphic" in2="effect1_dropShadow_1_2" result="shape"/>
</filter>
<filter id="filter7_d_1_2" x="686" y="364" width="70" height="70" filterUnits="userSpaceOnUse" color-interpolation-filters="sRGB">
<feFlood flood-opacity="0" result="BackgroundImageFix"/>
<feColorMatrix in="SourceAlpha" type="matrix" values="0 0 0 0 0 0 0 0 0 0 0 0 0 0 0 0 0 0 127 0" result="hardAlpha"/>
<feOffset dy="4"/>
<feGaussianBlur stdDeviation="5"/>
<feComposite in2="hardAlpha" operator="out"/>
<feColorMatrix type="matrix" values="0 0 0 0 0 0 0 0 0 0 0 0 0 0 0 0 0 0 0.16 0"/>
<feBlend mode="normal" in2="BackgroundImageFix" result="effect1_dropShadow_1_2"/>
<feBlend mode="normal" in="SourceGraphic" in2="effect1_dropShadow_1_2" result="shape"/>
</filter>
<filter id="filter8_d_1_2" x="883" y="364" width="70" height="70" filterUnits="userSpaceOnUse" color-interpolation-filters="sRGB">
<feFlood flood-opacity="0" result="BackgroundImageFix"/>
<feColorMatrix in="SourceAlpha" type="matrix" values="0 0 0 0 0 0 0 0 0 0 0 0 0 0 0 0 0 0 127 0" result="hardAlpha"/>
<feOffset dy="4"/>
<feGaussianBlur stdDeviation="5"/>
<feComposite in2="hardAlpha" operator="out"/>
<feColorMatrix type="matrix" values="0 0 0 0 0 0 0 0 0 0 0 0 0 0 0 0 0 0 0.16 0"/>
<feBlend mode="normal" in2="BackgroundImageFix" result="effect1_dropShadow_1_2"/>
<feBlend mode="normal" in="SourceGraphic" in2="effect1_dropShadow_1_2" result="shape"/>
</filter>
<filter id="filter9_d_1_2" x="1080" y="364" width="70" height="70" filterUnits="userSpaceOnUse" color-interpolation-filters="sRGB">
<feFlood flood-opacity="0" result="BackgroundImageFix"/>
<feColorMatrix in="SourceAlpha" type="matrix" values="0 0 0 0 0 0 0 0 0 0 0 0 0 0 0 0 0 0 127 0" result="hardAlpha"/>
<feOffset dy="4"/>
<feGaussianBlur stdDeviation="5"/>
<feComposite in2="hardAlpha" operator="out"/>
<feColorMatrix type="matrix" values="0 0 0 0 0 0 0 0 0 0 0 0 0 0 0 0 0 0 0.16 0"/>
<feBlend mode="normal" in2="BackgroundImageFix" result="effect1_dropShadow_1_2"/>
<feBlend mode="normal" in="SourceGraphic" in2="effect1_dropShadow_1_2" result="shape"/>
</filter>
<filter id="filter10_d_1_2" x="292" y="364" width="70" height="70" filterUnits="userSpaceOnUse" color-interpolation-filters="sRGB">
<feFlood flood-opacity="0" result="BackgroundImageFix"/>
<feColorMatrix in="SourceAlpha" type="matrix" values="0 0 0 0 0 0 0 0 0 0 0 0 0 0 0 0 0 0 127 0" result="hardAlpha"/>
<feOffset dy="4"/>
<feGaussianBlur stdDeviation="5"/>
<feComposite in2="hardAlpha" operator="out"/>
<feColorMatrix type="matrix" values="0 0 0 0 0 0 0 0 0 0 0 0 0 0 0 0 0 0 0.16 0"/>
<feBlend mode="normal" in2="BackgroundImageFix" result="effect1_dropShadow_1_2"/>
<feBlend mode="normal" in="SourceGraphic" in2="effect1_dropShadow_1_2" result="shape"/>
</filter>
<linearGradient id="paint0_linear_1_2" x1="1416.45" y1="174.049" x2="1127" y2="174.049" gradientUnits="userSpaceOnUse">
<stop stop-color="#221F2C"/>
<stop offset="0.421055" stop-color="#221F2C" stop-opacity="0.72"/>
<stop offset="1" stop-color="#221F2C" stop-opacity="0"/>
</linearGradient>
<linearGradient id="paint1_linear_1_2" x1="25.5487" y1="248" x2="315" y2="248" gradientUnits="userSpaceOnUse">
<stop stop-color="#221F2C"/>
<stop offset="1" stop-color="#221F2C" stop-opacity="0"/>
</linearGradient>
<clipPath id="clip0_1_2">
<rect width="1440" height="8800" fill="white" transform="translate(-19 -5632)"/>
</clipPath>
</defs>
</svg>
