<svg width="33" height="33" viewBox="0 0 33 33" fill="none" xmlns="http://www.w3.org/2000/svg">
<path fill-rule="evenodd" clip-rule="evenodd" d="M32.9999 16.5C32.9999 25.61 25.6099 33 16.4999 33C7.38988 33 -0.00012207 25.61 -0.00012207 16.5C-0.00012207 7.39 7.38988 0 16.4999 0C25.6099 0 32.9999 7.39 32.9999 16.5ZM25.4099 7.44043L22.0599 24.5703C22.0599 24.5703 21.9098 25.3496 20.9398 25.3496C20.4298 25.3496 20.1599 25.1104 20.1599 25.1104L15.5999 21.3301L12.5399 24.3496C12.5399 24.3496 12.4799 24.3899 12.3999 24.4199C12.3799 24.4299 12.3699 24.4304 12.3499 24.4404C12.3099 24.4504 12.2698 24.46 12.2198 24.46C12.1598 24.46 12.0999 24.4499 12.0299 24.4199C12.0299 24.4199 11.7999 24.4005 11.5099 23.4805C11.2199 22.5705 9.32983 17.29 9.32983 17.29H9.33984V17.2803L4.7699 16.0703C4.7699 16.0703 3.95984 15.8402 3.95984 15.1602C3.95984 14.6002 4.78992 14.3398 4.78992 14.3398L23.8899 6.75C23.8899 6.75 24.4699 6.54004 24.8999 6.54004C25.1599 6.54004 25.4598 6.65023 25.4598 6.99023C25.4598 7.21023 25.4099 7.44043 25.4099 7.44043Z" fill="white"/>
</svg>
