<svg width="1440" height="390" viewBox="0 0 1440 390" fill="none" xmlns="http://www.w3.org/2000/svg">
<mask id="mask0_1_558" style="mask-type:alpha" maskUnits="userSpaceOnUse" x="0" y="0" width="1440" height="390">
<path d="M1440 0H0V390H1440V0Z" fill="url(#paint0_linear_1_558)"/>
</mask>
<g mask="url(#mask0_1_558)">
<g style="mix-blend-mode:luminosity" opacity="0.5">
<mask id="mask1_1_558" style="mask-type:luminance" maskUnits="userSpaceOnUse" x="1189" y="121" width="271" height="487">
<path d="M1459.91 121H1189.02V607.69H1459.91V121Z" fill="white"/>
</mask>
<g mask="url(#mask1_1_558)">
<path d="M1326.2 255.18L1189.02 512.07L1251.31 532.99H1324.47H1396.62L1459.92 507.58L1326.2 255.18Z" fill="#3A935E"/>
<path opacity="0.19" d="M1189.02 512.07L1326.2 255.18L1251.31 532.99L1189.02 512.07Z" fill="black"/>
<path opacity="0.18" d="M1396.62 532.99L1326.2 255.18L1459.92 507.58L1396.62 532.99Z" fill="white"/>
<path d="M1324.47 172.85L1204.4 402.07L1265.69 425.72H1324.47H1383.28L1444.54 402.07L1324.47 172.85Z" fill="#3A935E"/>
<path opacity="0.18" d="M1326.2 176.15L1444.54 402.07L1383.28 425.72L1326.2 176.15Z" fill="white"/>
<path opacity="0.19" d="M1204.4 402.07L1324.47 172.85L1265.69 425.72L1204.4 402.07Z" fill="black"/>
<path opacity="0.15" d="M1259.47 296.95L1292.32 309.84L1356.95 309.39L1391.56 300.94L1383.65 285.83L1265.87 284.72L1259.47 296.95Z" fill="black"/>
<path d="M1324.47 121L1239.73 271.83L1284.41 293.87H1324.47H1364.53L1412.67 273.63L1324.47 121Z" fill="#3A935E"/>
<path opacity="0.18" d="M1324.47 121L1364.53 293.87L1412.67 273.63L1324.47 121Z" fill="white"/>
<path opacity="0.19" d="M1324.47 121L1284.41 293.87L1239.73 271.83L1324.47 121Z" fill="black"/>
</g>
<mask id="mask2_1_558" style="mask-type:luminance" maskUnits="userSpaceOnUse" x="987" y="121" width="271" height="487">
<path d="M1257.89 121H987V607.69H1257.89V121Z" fill="white"/>
</mask>
<g mask="url(#mask2_1_558)">
<path d="M1124.17 255.18L987 512.07L1049.29 532.99H1122.45H1194.6L1257.89 507.58L1124.17 255.18Z" fill="#3A935E"/>
<path opacity="0.19" d="M987 512.07L1124.18 255.18L1049.29 532.99L987 512.07Z" fill="black"/>
<path opacity="0.18" d="M1194.6 532.99L1124.17 255.18L1257.89 507.58L1194.6 532.99Z" fill="white"/>
<path d="M1122.45 172.85L1002.38 402.07L1063.67 425.72H1122.45H1181.25L1242.52 402.07L1122.45 172.85Z" fill="#3A935E"/>
<path opacity="0.18" d="M1124.17 176.15L1242.52 402.07L1181.25 425.72L1124.17 176.15Z" fill="white"/>
<path opacity="0.19" d="M1002.38 402.07L1122.45 172.85L1063.67 425.72L1002.38 402.07Z" fill="black"/>
<path opacity="0.15" d="M1057.44 296.95L1090.3 309.84L1154.93 309.39L1189.54 300.94L1181.63 285.83L1063.85 284.72L1057.44 296.95Z" fill="black"/>
<path d="M1122.45 121L1037.71 271.83L1082.39 293.87H1122.45H1162.5L1210.64 273.63L1122.45 121Z" fill="#3A935E"/>
<path opacity="0.18" d="M1122.45 121L1162.5 293.87L1210.64 273.63L1122.45 121Z" fill="white"/>
<path opacity="0.19" d="M1122.45 121L1082.39 293.87L1037.71 271.83L1122.45 121Z" fill="black"/>
</g>
<mask id="mask3_1_558" style="mask-type:luminance" maskUnits="userSpaceOnUse" x="1078" y="153" width="291" height="510">
<path d="M1368.09 153.14H1078.83V662.787H1368.09V153.14Z" fill="white"/>
</mask>
<g mask="url(#mask3_1_558)">
<path d="M1225.3 293.65L1078.83 562.66L1145.34 584.57H1223.46H1300.5L1368.09 557.95L1225.3 293.65Z" fill="#3A935E"/>
<path opacity="0.19" d="M1078.83 562.66L1225.3 293.65L1145.34 584.57L1078.83 562.66Z" fill="black"/>
<path opacity="0.18" d="M1300.5 584.57L1225.3 293.65L1368.09 557.95L1300.5 584.57Z" fill="white"/>
<path d="M1223.46 207.44L1095.25 447.47L1160.69 472.23H1223.46H1286.25L1351.67 447.47L1223.46 207.44Z" fill="#3A935E"/>
<path opacity="0.18" d="M1225.3 210.89L1351.67 447.47L1286.25 472.23L1225.3 210.89Z" fill="white"/>
<path opacity="0.19" d="M1095.25 447.47L1223.46 207.44L1160.69 472.23L1095.25 447.47Z" fill="black"/>
<path opacity="0.15" d="M1154.05 337.39L1189.13 350.89L1258.14 350.42L1295.1 341.56L1286.65 325.75L1160.89 324.59L1154.05 337.39Z" fill="black"/>
<path d="M1223.46 153.14L1132.97 311.08L1180.68 334.16H1223.46H1266.23L1317.63 312.97L1223.46 153.14Z" fill="#3A935E"/>
<path opacity="0.18" d="M1223.46 153.14L1266.23 334.16L1317.63 312.97L1223.46 153.14Z" fill="white"/>
<path opacity="0.19" d="M1223.46 153.14L1180.68 334.16L1132.97 311.08L1223.46 153.14Z" fill="black"/>
</g>
<mask id="mask4_1_558" style="mask-type:luminance" maskUnits="userSpaceOnUse" x="194" y="-60" width="271" height="487">
<path d="M464.916 -60H194.023V426.69H464.916V-60Z" fill="white"/>
</mask>
<g mask="url(#mask4_1_558)">
<path d="M329.47 426.69L340.477 411.57L338.199 368.86L329.47 351.99H307.133V417.53L329.47 426.69Z" fill="#593F30"/>
<path d="M329.47 426.69L349.476 417V351.99H329.47V426.69Z" fill="#7F5F4C"/>
<path d="M331.198 74.1802L194.023 331.07L256.313 351.99H329.47H401.623L464.917 326.58L331.198 74.1802Z" fill="#3A935E"/>
<path opacity="0.19" d="M194.023 331.07L331.198 74.1802L256.313 351.99L194.023 331.07Z" fill="black"/>
<path opacity="0.18" d="M401.623 351.99L331.198 74.1802L464.917 326.58L401.623 351.99Z" fill="white"/>
<path opacity="0.15" d="M237.267 250.09L280.091 261.93L379.042 262.24L423.647 248.67L415.904 234.06L245.358 234.95L237.267 250.09Z" fill="black"/>
<path d="M329.47 -8.1499L209.403 221.07L270.689 244.72H329.47H388.276L449.545 221.07L329.47 -8.1499Z" fill="#3A935E"/>
<path opacity="0.18" d="M331.198 -4.8501L449.545 221.07L388.277 244.72L331.198 -4.8501Z" fill="white"/>
<path opacity="0.19" d="M209.403 221.07L329.47 -8.1499L270.689 244.72L209.403 221.07Z" fill="black"/>
<path opacity="0.15" d="M264.466 115.95L297.321 128.84L361.95 128.39L396.561 119.94L388.652 104.83L270.873 103.72L264.466 115.95Z" fill="black"/>
<path d="M329.47 -60L244.729 90.83L289.413 112.87H329.47H369.527L417.667 92.63L329.47 -60Z" fill="#3A935E"/>
<path opacity="0.18" d="M329.47 -60L369.527 112.87L417.667 92.63L329.47 -60Z" fill="white"/>
<path opacity="0.19" d="M329.47 -60L289.413 112.87L244.729 90.83L329.47 -60Z" fill="black"/>
<path opacity="0.13" d="M307.133 351.99H349.477V362.87L329.47 366.33L307.133 362.45V351.99Z" fill="black"/>
</g>
<mask id="mask5_1_558" style="mask-type:luminance" maskUnits="userSpaceOnUse" x="-8" y="-60" width="271" height="487">
<path d="M262.893 -60H-8V426.69H262.893V-60Z" fill="white"/>
</mask>
<g mask="url(#mask5_1_558)">
<path d="M127.447 426.69L138.454 411.57L136.176 368.86L127.447 351.99H105.109V417.53L127.447 426.69Z" fill="#593F30"/>
<path d="M127.446 426.69L147.453 417V351.99H127.446V426.69Z" fill="#7F5F4C"/>
<path d="M129.175 74.1802L-8 331.07L54.2896 351.99H127.447H199.6L262.893 326.58L129.175 74.1802Z" fill="#3A935E"/>
<path opacity="0.19" d="M-8 331.07L129.175 74.1802L54.2896 351.99L-8 331.07Z" fill="black"/>
<path opacity="0.18" d="M199.6 351.99L129.175 74.1802L262.893 326.58L199.6 351.99Z" fill="white"/>
<path opacity="0.15" d="M35.2432 250.09L78.0673 261.93L177.018 262.24L221.623 248.67L213.881 234.06L43.3349 234.95L35.2432 250.09Z" fill="black"/>
<path d="M127.446 -8.1499L7.37988 221.07L68.6656 244.72H127.446H186.253L247.521 221.07L127.446 -8.1499Z" fill="#3A935E"/>
<path opacity="0.18" d="M129.175 -4.8501L247.522 221.07L186.253 244.72L129.175 -4.8501Z" fill="white"/>
<path opacity="0.19" d="M7.37988 221.07L127.446 -8.1499L68.6656 244.72L7.37988 221.07Z" fill="black"/>
<path opacity="0.15" d="M62.4424 115.95L95.298 128.84L159.927 128.39L194.537 119.94L186.629 104.83L68.8494 103.72L62.4424 115.95Z" fill="black"/>
<path d="M127.446 -60L42.7061 90.83L87.3894 112.87H127.446H167.503L215.643 92.63L127.446 -60Z" fill="#3A935E"/>
<path opacity="0.18" d="M127.446 -60L167.503 112.87L215.643 92.63L127.446 -60Z" fill="white"/>
<path opacity="0.19" d="M127.446 -60L87.3894 112.87L42.7061 90.83L127.446 -60Z" fill="black"/>
<path opacity="0.13" d="M105.109 351.99H147.453V362.87L127.447 366.33L105.109 362.45V351.99Z" fill="black"/>
</g>
<mask id="mask6_1_558" style="mask-type:luminance" maskUnits="userSpaceOnUse" x="83" y="-28" width="291" height="510">
<path d="M373.087 -27.8599H83.8281V481.787H373.087V-27.8599Z" fill="white"/>
</mask>
<g mask="url(#mask6_1_558)">
<path d="M230.303 112.65L83.8281 381.66L150.341 403.57H228.458H305.503L373.087 376.95L230.303 112.65Z" fill="#3A935E"/>
<path opacity="0.19" d="M83.8281 381.66L230.303 112.65L150.341 403.57L83.8281 381.66Z" fill="black"/>
<path opacity="0.18" d="M305.502 403.57L230.303 112.65L373.087 376.95L305.502 403.57Z" fill="white"/>
<path opacity="0.15" d="M130.003 296.86L175.73 309.26L281.39 309.58L329.019 295.37L320.751 280.07L138.643 281L130.003 296.86Z" fill="black"/>
<path d="M228.457 26.4399L100.251 266.47L165.692 291.23H228.457H291.251L356.673 266.47L228.457 26.4399Z" fill="#3A935E"/>
<path opacity="0.18" d="M230.303 29.8901L356.673 266.47L291.251 291.23L230.303 29.8901Z" fill="white"/>
<path opacity="0.19" d="M100.251 266.47L228.457 26.4399L165.692 291.23L100.251 266.47Z" fill="black"/>
<path opacity="0.15" d="M159.046 156.39L194.129 169.89L263.14 169.42L300.096 160.56L291.652 144.75L165.887 143.59L159.046 156.39Z" fill="black"/>
<path d="M228.457 -27.8599L137.972 130.08L185.684 153.16H228.457H271.23L322.634 131.97L228.457 -27.8599Z" fill="#3A935E"/>
<path opacity="0.18" d="M228.458 -27.8599L271.231 153.16L322.634 131.97L228.458 -27.8599Z" fill="white"/>
<path opacity="0.19" d="M228.457 -27.8599L185.684 153.16L137.972 130.08L228.457 -27.8599Z" fill="black"/>
</g>
</g>
</g>
<defs>
<linearGradient id="paint0_linear_1_558" x1="767" y1="207.31" x2="-4.57168e-05" y2="207.31" gradientUnits="userSpaceOnUse">
<stop stop-color="#5ED3D0"/>
<stop offset="1" stop-color="#89A2FB"/>
</linearGradient>
</defs>
</svg>
