<svg width="32" height="32" viewBox="0 0 32 32" fill="none" xmlns="http://www.w3.org/2000/svg">
<path fill-rule="evenodd" clip-rule="evenodd" d="M15.9999 32C24.8399 32 31.9999 24.84 31.9999 16C31.9999 7.16 24.8399 0 15.9999 0C7.15988 0 -0.00012207 7.16 -0.00012207 16C-0.00012207 24.84 7.15988 32 15.9999 32ZM24.2599 10.8701C25.1099 10.7601 25.9199 10.5304 26.6699 10.1904C26.1099 11.0604 25.3998 11.8102 24.5798 12.4102C24.5898 12.6002 24.5999 12.7797 24.5999 12.9697C24.5999 18.6397 20.3898 25.1699 12.7098 25.1699C10.3498 25.1699 8.14993 24.46 6.29993 23.25C6.62993 23.29 6.95993 23.3096 7.29993 23.3096C9.25993 23.3096 11.0599 22.6197 12.4899 21.4697C10.6599 21.4397 9.11983 20.1902 8.57983 18.4902C8.83983 18.5402 9.09987 18.5703 9.36987 18.5703C9.74987 18.5703 10.1198 18.5199 10.4698 18.4199C8.55985 18.0199 7.11987 16.29 7.11987 14.21V14.1602C7.67987 14.4802 8.32989 14.6702 9.00989 14.7002C7.88989 13.9202 7.15991 12.6101 7.15991 11.1201C7.15991 10.3401 7.35985 9.59996 7.71985 8.95996C9.77985 11.56 12.8598 13.2702 16.3298 13.4502C16.2598 13.1302 16.2198 12.8097 16.2198 12.4697C16.2198 10.0997 18.0899 8.17969 20.3999 8.17969C21.5999 8.17969 22.6898 8.70027 23.4498 9.53027C24.3998 9.34027 25.2999 8.98023 26.0999 8.49023C25.7899 9.49023 25.1299 10.3401 24.2599 10.8701Z" fill="white"/>
</svg>
